#N canvas 2647 762 450 454 12;
#X obj 96 263 dac~;
#X obj 95 228 *~ 0.2;
#X obj 94 154 *~ 100;
#X obj 94 178 +~ 200;
#X obj 94 202 osc~;
#X floatatom 95 72 5 0 0 0 - - - 0;
#X floatatom 174 79 5 0 0 0 - - - 0;
#X obj 94 130 SaH_audiorate_fexpr 0.1;
#X obj 95 97 osc~ 10.1;
#X obj 174 102 phasor~ 2;
#X connect 1 0 0 0;
#X connect 1 0 0 1;
#X connect 2 0 3 0;
#X connect 3 0 4 0;
#X connect 4 0 1 0;
#X connect 5 0 8 0;
#X connect 6 0 9 0;
#X connect 7 0 2 0;
#X connect 8 0 7 0;
#X connect 9 0 7 1;
