#N canvas 2523 149 1056 455 12;
#X obj 23 41 inlet~ signal;
#X obj 190 40 inlet~ trigger;
#X obj 190 316 outlet~;
#X obj 806 6 inlet threshold;
#X obj 825 28 loadbang;
#X obj 806 111 v threshold;
#X obj 191 206 expr~ if($v1 >= threshold && $v2 < threshold \, $v3 \, $v4) \; $v1;
#X obj 581 259 delwrite~ \$0-storePreviousTriggerValue 0;
#X obj 579 165 delread~ \$0-storeSampledValue 0;
#X obj 320 125 delread~ \$0-storePreviousTriggerValue 0;
#X obj 407 314 delwrite~ \$0-storeSampledValue 0;
#X obj 806 83 \$0;
#X obj 825 52 delay 10;
#X connect 0 0 6 2;
#X connect 1 0 6 0;
#X connect 3 0 11 0;
#X connect 4 0 12 0;
#X connect 6 0 2 0;
#X connect 6 0 10 0;
#X connect 6 1 7 0;
#X connect 8 0 6 3;
#X connect 9 0 6 1;
#X connect 11 0 5 0;
#X connect 12 0 11 0;
