#N canvas 199 32 1115 847 12;
#X obj 60 137 samphold~;
#X obj 78 271 samphold~;
#X obj 106 411 samphold~;
#X obj 124 530 samphold~;
#X obj 175 652 samphold~;
#X obj 307 738 samphold~;
#X obj 484 745 samphold~;
#X obj 643 767 samphold~;
#X obj 77 241 delread~ \$0-1;
#X obj 75 170 delwrite~ \$0-1 1;
#X obj 97 312 delwrite~ \$0-2 1;
#X obj 106 379 delread~ \$0-2;
#X obj 120 443 delwrite~ \$0-3 1;
#X obj 124 502 delread~ \$0-3;
#X obj 139 564 delwrite~ \$0-4 1;
#X obj 175 627 delread~ \$0-4;
#X obj 183 678 delwrite~ \$0-5 1;
#X obj 306 712 delread~ \$0-5;
#X obj 326 771 delwrite~ \$0-6 1;
#X obj 484 717 delread~ \$0-6;
#X obj 494 777 delwrite~ \$0-7 1;
#X obj 643 740 delread~ \$0-7;
#X obj 60 20 inlet~ signal;
#X obj 836 8 inlet~ trigger;
#X obj 60 209 outlet~ stage1;
#X obj 78 345 outlet~ stage2;
#X obj 106 472 outlet~ stage3;
#X obj 124 596 outlet~ stage4;
#X obj 176 709 outlet~ stage5;
#X obj 308 799 outlet~ stage6;
#X obj 484 804 outlet~ stage7;
#X obj 643 796 outlet~ stage8;
#X connect 0 0 9 0;
#X connect 0 0 24 0;
#X connect 1 0 10 0;
#X connect 1 0 25 0;
#X connect 2 0 12 0;
#X connect 2 0 26 0;
#X connect 3 0 14 0;
#X connect 3 0 27 0;
#X connect 4 0 16 0;
#X connect 4 0 28 0;
#X connect 5 0 18 0;
#X connect 5 0 29 0;
#X connect 6 0 20 0;
#X connect 6 0 30 0;
#X connect 7 0 31 0;
#X connect 8 0 1 0;
#X connect 11 0 2 0;
#X connect 13 0 3 0;
#X connect 15 0 4 0;
#X connect 17 0 5 0;
#X connect 19 0 6 0;
#X connect 21 0 7 0;
#X connect 22 0 0 0;
#X connect 23 0 0 1;
#X connect 23 0 1 1;
#X connect 23 0 2 1;
#X connect 23 0 3 1;
#X connect 23 0 4 1;
#X connect 23 0 5 1;
#X connect 23 0 6 1;
#X connect 23 0 7 1;
