#N canvas 2549 1155 450 454 12;
#X obj 95 324 dac~;
#X obj 94 289 *~ 0.2;
#X obj 94 39 osc~ 10;
#X obj 94 154 *~ 100;
#X obj 94 178 +~ 200;
#X obj 151 39 phasor~ 1;
#X obj 94 230 osc~;
#X floatatom 92 9 5 0 0 0 - - - 0;
#X floatatom 153 6 5 0 0 0 - - - 0;
#X obj 94 130 SaH_audiorate;
#X connect 1 0 0 0;
#X connect 1 0 0 1;
#X connect 2 0 9 0;
#X connect 3 0 4 0;
#X connect 4 0 6 0;
#X connect 5 0 9 1;
#X connect 6 0 1 0;
#X connect 7 0 2 0;
#X connect 8 0 5 0;
#X connect 9 0 3 0;
